<svg xmlns="http://www.w3.org/2000/svg" viewBox="0 0 24 24" width="24" height="24" aria-hidden="true">
  <circle cx="12" cy="12" r="12" fill="#1DB954"/>
  <path d="M17.25 16.1c-.18.3-.57.4-.87.22-2.36-1.44-5.34-1.77-8.84-1.01a.67.67 0 0 1-.27-1.3c3.86-.82 7.15-.44 9.77 1.13.3.18.41.57.21.87zm1.2-2.6c-.23.37-.72.48-1.1.25-2.71-1.66-6.85-2.14-10.04-1.22-.42.12-.86-.12-.98-.54a.78.78 0 0 1 .55-.97c3.64-1.01 8.19-.48 11.28 1.4.38.23.5.72.29 1.08zm.11-2.74c-3.21-1.91-8.5-2.08-11.56-1.18a.85.85 0 1 1-.46-1.63c3.5-.99 9.27-.78 12.9 1.35a.85.85 0 0 1-.88 1.46z" fill="#fff"/>
</svg>
